<svg width="238" height="57" viewBox="0 0 238 57" fill="none" xmlns="http://www.w3.org/2000/svg">
<path fill-rule="evenodd" clip-rule="evenodd" d="M21.1023 29.9221L26.2993 26.892C26.2993 26.892 24.2692 19.0935 13.1444 19.6996C1.91969 20.3111 -0.160237 29.0401 2.07267 34.0609C5.51838 41.8077 14.9578 40.2124 18.6764 42.4951C21.7471 44.3804 21.6673 49.4581 16.2672 50.3477C11.603 51.1158 7.3589 49.7189 5.44521 45.5136L0 49.2942C0 49.2942 0.246033 49.6599 0.714441 50.2325C4.4718 54.8252 8.01688 57.5272 16.2662 56.6094C23.3308 55.8234 26.6195 51.9304 27.3462 48.501C27.8055 47.1832 28.4455 39.5272 22.4486 36.9133C22.2978 36.8477 22.1514 36.784 22.0089 36.7222C19.7123 35.7293 17.1942 34.9518 14.7118 34.6244C9.3382 33.9162 6.86368 31.281 8.51588 28.0233C8.51588 28.0233 10.0025 24.8473 15.7429 25.7202C15.7429 25.7202 18.5512 26.0348 21.1023 29.9221Z" fill="#FFFFFE"/>
<path fill-rule="evenodd" clip-rule="evenodd" d="M226.905 29.9221L232.102 26.892C232.102 26.892 230.072 19.0935 218.947 19.6996C207.722 20.3111 205.642 29.0401 207.875 34.0609C211.321 41.8077 220.761 40.2124 224.479 42.4951C227.55 44.3804 227.47 49.4581 222.07 50.3477C217.406 51.1158 213.162 49.7189 211.248 45.5136L205.803 49.2942C205.803 49.2942 206.049 49.6599 206.517 50.2325C210.275 54.8252 213.82 57.5272 222.069 56.6094C229.134 55.8234 232.422 51.9304 233.149 48.501C233.608 47.1832 234.249 39.5272 228.251 36.9133C228.101 36.8477 227.954 36.784 227.812 36.7222C225.515 35.7293 222.997 34.9518 220.515 34.6244C215.141 33.9162 212.667 31.281 214.318 28.0233C214.318 28.0233 215.805 24.8473 221.546 25.7202C221.546 25.7202 224.354 26.0348 226.905 29.9221Z" fill="#FFFFFE"/>
<path fill-rule="evenodd" clip-rule="evenodd" d="M45.8262 38.7089C45.8262 35.1722 48.6929 32.3052 52.2296 32.3052C55.7663 32.3052 58.6333 35.1722 58.6333 38.7089C58.6333 42.2453 55.7663 45.1124 52.2296 45.1124C48.6929 45.1124 45.8262 42.2453 45.8262 38.7089Z" fill="white"/>
<path fill-rule="evenodd" clip-rule="evenodd" d="M189.973 8.82505C189.973 6.46727 191.884 4.55615 194.242 4.55615C196.6 4.55615 198.511 6.46727 198.511 8.82505C198.511 11.1828 196.6 13.0943 194.242 13.0943C191.884 13.0943 189.973 11.1828 189.973 8.82505Z" fill="white"/>
<path fill-rule="evenodd" clip-rule="evenodd" d="M51.7631 19.498C41.4481 19.498 33.0859 27.86 33.0859 38.1753C33.0859 48.4904 41.4481 56.8523 51.7631 56.8523C62.078 56.8523 70.4402 48.4904 70.4402 38.1753C70.4402 27.86 62.078 19.498 51.7631 19.498ZM51.7619 26.1096C58.4149 26.1096 63.8273 31.5221 63.8273 38.1754C63.8273 44.8281 58.4149 50.2406 51.7619 50.2406C45.109 50.2406 39.6965 44.8281 39.6965 38.1754C39.6965 31.5221 45.109 26.1096 51.7619 26.1096Z" fill="#FFFFFE"/>
<path fill-rule="evenodd" clip-rule="evenodd" d="M78.9766 55.7849H85.3802V0.287109H78.9766V55.7849Z" fill="#FFFFFE"/>
<mask id="mask0_309_997" style="mask-type:alpha" maskUnits="userSpaceOnUse" x="95" y="19" width="103" height="38">
<path fill-rule="evenodd" clip-rule="evenodd" d="M95.1387 19.7451H197.414V56.8336H95.1387V19.7451Z" fill="white"/>
</mask>
<g mask="url(#mask0_309_997)">
<path fill-rule="evenodd" clip-rule="evenodd" d="M191.375 55.7136H197.416V20.8501H191.375V55.7136Z" fill="#FFFFFE"/>
<path fill-rule="evenodd" clip-rule="evenodd" d="M108.919 50.1889C100.335 51.1968 101.54 44.3246 102.759 42.9243C102.759 42.9243 103.572 39.5862 117.306 39.2855V44.4294C117.306 44.4294 117.503 49.1678 108.919 50.1889ZM109.746 19.7863C99.7826 20.3836 96.6513 25.3361 96.6513 25.3361L100.505 29.7115C100.505 29.7115 102.725 26.058 109.317 25.5621C115.186 25.5621 116.992 27.5911 116.992 33.6174C116.992 33.6174 98.0531 31.3922 95.5498 41.9945C94.1374 48.0019 96.6262 52.1611 99.0443 54.2555C100.889 55.8536 103.243 56.7071 105.681 56.8336C109.222 57.0166 115.733 55.9295 118.193 51.5305L118.407 55.5933L124.919 55.6228C124.713 54.7719 124.532 53.762 124.447 52.6188C124.377 51.678 124.314 50.8192 124.29 50.069C124.242 43.4397 124.195 36.8104 124.147 30.1811C124.106 28.1241 123.499 26.0844 122.236 24.4587C120.466 21.6571 116.019 19.4105 109.746 19.7863Z" fill="#FFFFFE"/>
</g>
<path fill-rule="evenodd" clip-rule="evenodd" d="M132.342 55.785H138.775V34.8169C138.775 34.8169 138.829 24.0388 151.682 26.0354L152.62 19.9999C152.62 19.9999 142.629 17.3053 138.775 24.4038V20.245H132.342C132.342 20.245 132.342 55.4765 132.342 55.785Z" fill="#FFFFFE"/>
<path fill-rule="evenodd" clip-rule="evenodd" d="M164.693 26.5207V48.8038C164.693 48.8038 164.452 53.2621 168.321 55.6883C169.612 56.4988 171.121 56.8549 172.636 56.8523C174.948 56.8485 179.144 56.6635 180.357 55.4219V49.5312C180.357 49.5312 174.957 52.503 171.993 50.2589C171.255 49.6994 170.896 48.7521 170.896 47.8112V26.8001L180.368 26.8587V20.6592H170.911V10.96H164.468V20.7292H157.955V26.5302C157.955 26.5302 164.648 26.567 164.693 26.5207Z" fill="#FFFFFE"/>
<path fill-rule="evenodd" clip-rule="evenodd" d="M232.993 21.0257V23.7667H232.337V21.0257H231.598V20.5649H233.732V21.0257H232.993Z" fill="#FFFFFE"/>
<path fill-rule="evenodd" clip-rule="evenodd" d="M237.38 23.7667L237.39 21.3061H237.374L236.62 23.7667H236.121L235.383 21.3061H235.367L235.378 23.7667H234.799V20.5649H235.654L236.376 22.9077H236.397L237.103 20.5649H238.001V23.7667H237.38Z" fill="#FFFFFE"/>
</svg>
